<?xml version="1.0" encoding="utf-8" standalone="no"?>
<!DOCTYPE svg PUBLIC "-//W3C//DTD SVG 1.1//EN"
  "http://www.w3.org/Graphics/SVG/1.1/DTD/svg11.dtd">
<svg xmlns:xlink="http://www.w3.org/1999/xlink" width="858.96pt" height="588.959719pt" viewBox="0 0 858.96 588.959719" xmlns="http://www.w3.org/2000/svg" version="1.1">
 <metadata>
  <rdf:RDF xmlns:dc="http://purl.org/dc/elements/1.1/" xmlns:cc="http://creativecommons.org/ns#" xmlns:rdf="http://www.w3.org/1999/02/22-rdf-syntax-ns#">
   <cc:Work>
    <dc:type rdf:resource="http://purl.org/dc/dcmitype/StillImage"/>
    <dc:date>2026-09-28T11:07:31.743814</dc:date>
    <dc:format>image/svg+xml</dc:format>
    <dc:creator>
     <cc:Agent>
      <dc:title>Matplotlib v3.10.0, https://matplotlib.org/</dc:title>
     </cc:Agent>
    </dc:creator>
   </cc:Work>
  </rdf:RDF>
 </metadata>
 <defs>
  <style type="text/css">*{stroke-linejoin: round; stroke-linecap: butt}</style>
 </defs>
 <g id="figure_1">
  <g id="patch_1">
   <path d="M 0 588.959719 
L 858.96 588.959719 
L 858.96 0 
L 0 0 
z
" style="fill: #ffffff"/>
  </g>
  <g id="axes_1">
   <g id="patch_2">
    <path d="M 42.12875 283.994 
L 851.76 283.994 
L 851.76 73.86 
L 42.12875 73.86 
z
" style="fill: #ffffff"/>
   </g>
   <g id="FillBetweenPolyCollection_1">
    <defs>
     <path id="m1619e00e4a" d="M 78.93017 -389.09016 
L 78.93017 -304.965719 
L 142.932641 -304.965719 
L 206.935111 -304.965719 
L 270.937582 -304.965719 
L 334.940052 -304.965719 
L 398.942522 -304.965719 
L 462.944993 -304.965719 
L 526.947463 -304.965719 
L 590.949933 -304.965719 
L 654.952404 -304.965719 
L 718.954874 -304.965719 
L 782.957344 -304.965719 
L 782.957344 -318.248525 
L 782.957344 -318.248525 
L 718.954874 -318.248525 
L 654.952404 -318.248525 
L 590.949933 -318.248525 
L 526.947463 -318.248525 
L 462.944993 -319.724393 
L 398.942522 -321.20026 
L 334.940052 -322.676128 
L 270.937582 -327.10373 
L 206.935111 -341.862404 
L 142.932641 -364.000415 
L 78.93017 -389.09016 
z
" style="stroke: #ffffff; stroke-opacity: 0.88; stroke-width: 0.5"/>
    </defs>
    <g clip-path="url(#p08486ae0dd)">
     <use xlink:href="#m1619e00e4a" x="0" y="588.959719" style="fill: #e69f00; fill-opacity: 0.88; stroke: #ffffff; stroke-opacity: 0.88; stroke-width: 0.5"/>
    </g>
   </g>
   <g id="FillBetweenPolyCollection_2">
    <defs>
     <path id="mc5ee987bf8" d="M 78.93017 -403.848834 
L 78.93017 -389.09016 
L 142.932641 -364.000415 
L 206.935111 -341.862404 
L 270.937582 -327.10373 
L 334.940052 -322.676128 
L 398.942522 -321.20026 
L 462.944993 -319.724393 
L 526.947463 -318.248525 
L 590.949933 -318.248525 
L 654.952404 -318.248525 
L 718.954874 -318.248525 
L 782.957344 -318.248525 
L 782.957344 -318.248525 
L 782.957344 -318.248525 
L 718.954874 -318.248525 
L 654.952404 -318.248525 
L 590.949933 -321.20026 
L 526.947463 -327.10373 
L 462.944993 -330.055465 
L 398.942522 -340.386536 
L 334.940052 -344.814138 
L 270.937582 -358.096945 
L 206.935111 -378.759089 
L 142.932641 -392.041895 
L 78.93017 -403.848834 
z
" style="stroke: #ffffff; stroke-opacity: 0.88; stroke-width: 0.5"/>
    </defs>
    <g clip-path="url(#p08486ae0dd)">
     <use xlink:href="#mc5ee987bf8" x="0" y="588.959719" style="fill: #009e73; fill-opacity: 0.88; stroke: #ffffff; stroke-opacity: 0.88; stroke-width: 0.5"/>
    </g>
   </g>
   <g id="FillBetweenPolyCollection_3">
    <defs>
     <path id="m4e30868cf4" d="M 78.93017 -403.848834 
L 78.93017 -403.848834 
L 142.932641 -392.041895 
L 206.935111 -378.759089 
L 270.937582 -358.096945 
L 334.940052 -344.814138 
L 398.942522 -340.386536 
L 462.944993 -330.055465 
L 526.947463 -327.10373 
L 590.949933 -321.20026 
L 654.952404 -318.248525 
L 718.954874 -318.248525 
L 782.957344 -318.248525 
L 782.957344 -318.248525 
L 782.957344 -318.248525 
L 718.954874 -318.248525 
L 654.952404 -318.248525 
L 590.949933 -327.10373 
L 526.947463 -341.862404 
L 462.944993 -353.669343 
L 398.942522 -362.524547 
L 334.940052 -369.903884 
L 270.937582 -377.283221 
L 206.935111 -389.09016 
L 142.932641 -392.041895 
L 78.93017 -403.848834 
z
" style="stroke: #ffffff; stroke-opacity: 0.88; stroke-width: 0.5"/>
    </defs>
    <g clip-path="url(#p08486ae0dd)">
     <use xlink:href="#m4e30868cf4" x="0" y="588.959719" style="fill: #7a7a7a; fill-opacity: 0.88; stroke: #ffffff; stroke-opacity: 0.88; stroke-width: 0.5"/>
    </g>
   </g>
   <g id="FillBetweenPolyCollection_4">
    <defs>
     <path id="m46e3dd91a7" d="M 78.93017 -403.848834 
L 78.93017 -403.848834 
L 142.932641 -392.041895 
L 206.935111 -389.09016 
L 270.937582 -377.283221 
L 334.940052 -369.903884 
L 398.942522 -362.524547 
L 462.944993 -353.669343 
L 526.947463 -341.862404 
L 590.949933 -327.10373 
L 654.952404 -318.248525 
L 718.954874 -318.248525 
L 782.957344 -318.248525 
L 782.957344 -318.248525 
L 782.957344 -318.248525 
L 718.954874 -318.248525 
L 654.952404 -318.248525 
L 590.949933 -327.10373 
L 526.947463 -341.862404 
L 462.944993 -353.669343 
L 398.942522 -368.428017 
L 334.940052 -393.517763 
L 270.937582 -442.221387 
L 206.935111 -477.642204 
L 142.932641 -489.449143 
L 78.93017 -403.848834 
z
" style="stroke: #ffffff; stroke-opacity: 0.88; stroke-width: 0.5"/>
    </defs>
    <g clip-path="url(#p08486ae0dd)">
     <use xlink:href="#m46e3dd91a7" x="0" y="588.959719" style="fill: #0072b2; fill-opacity: 0.88; stroke: #ffffff; stroke-opacity: 0.88; stroke-width: 0.5"/>
    </g>
   </g>
   <g id="FillBetweenPolyCollection_5">
    <defs>
     <path id="m3689c30926" d="M 78.93017 -403.848834 
L 78.93017 -403.848834 
L 142.932641 -489.449143 
L 206.935111 -477.642204 
L 270.937582 -442.221387 
L 334.940052 -393.517763 
L 398.942522 -368.428017 
L 462.944993 -353.669343 
L 526.947463 -341.862404 
L 590.949933 -327.10373 
L 654.952404 -318.248525 
L 718.954874 -318.248525 
L 782.957344 -318.248525 
L 782.957344 -393.517763 
L 782.957344 -393.517763 
L 718.954874 -402.372967 
L 654.952404 -368.428017 
L 590.949933 -327.10373 
L 526.947463 -341.862404 
L 462.944993 -353.669343 
L 398.942522 -368.428017 
L 334.940052 -394.99363 
L 270.937582 -442.221387 
L 206.935111 -477.642204 
L 142.932641 -489.449143 
L 78.93017 -403.848834 
z
" style="stroke: #ffffff; stroke-opacity: 0.88; stroke-width: 0.5"/>
    </defs>
    <g clip-path="url(#p08486ae0dd)">
     <use xlink:href="#m3689c30926" x="0" y="588.959719" style="fill: #d55e00; fill-opacity: 0.88; stroke: #ffffff; stroke-opacity: 0.88; stroke-width: 0.5"/>
    </g>
   </g>
   <g id="patch_3">
    <path d="M 750.956109 283.994 
L 814.95858 283.994 
L 814.95858 73.86 
L 750.956109 73.86 
z
" clip-path="url(#p08486ae0dd)" style="fill: #bdbdbd; opacity: 0.18; stroke: #bdbdbd; stroke-linejoin: miter"/>
   </g>
   <g id="matplotlib.axis_1">
    <g id="xtick_1">
     <g id="line2d_1">
      <defs>
       <path id="m705897dcd9" d="M 0 0 
L 0 3.5 
" style="stroke: #000000; stroke-width: 0.8"/>
      </defs>
      <g>
       <use xlink:href="#m705897dcd9" x="78.93017" y="283.994" style="stroke: #000000; stroke-width: 0.8"/>
      </g>
     </g>
    </g>
    <g id="xtick_2">
     <g id="line2d_2">
      <g>
       <use xlink:href="#m705897dcd9" x="142.932641" y="283.994" style="stroke: #000000; stroke-width: 0.8"/>
      </g>
     </g>
    </g>
    <g id="xtick_3">
     <g id="line2d_3">
      <g>
       <use xlink:href="#m705897dcd9" x="206.935111" y="283.994" style="stroke: #000000; stroke-width: 0.8"/>
      </g>
     </g>
    </g>
    <g id="xtick_4">
     <g id="line2d_4">
      <g>
       <use xlink:href="#m705897dcd9" x="270.937582" y="283.994" style="stroke: #000000; stroke-width: 0.8"/>
      </g>
     </g>
    </g>
    <g id="xtick_5">
     <g id="line2d_5">
      <g>
       <use xlink:href="#m705897dcd9" x="334.940052" y="283.994" style="stroke: #000000; stroke-width: 0.8"/>
      </g>
     </g>
    </g>
    <g id="xtick_6">
     <g id="line2d_6">
      <g>
       <use xlink:href="#m705897dcd9" x="398.942522" y="283.994" style="stroke: #000000; stroke-width: 0.8"/>
      </g>
     </g>
    </g>
    <g id="xtick_7">
     <g id="line2d_7">
      <g>
       <use xlink:href="#m705897dcd9" x="462.944993" y="283.994" style="stroke: #000000; stroke-width: 0.8"/>
      </g>
     </g>
    </g>
    <g id="xtick_8">
     <g id="line2d_8">
      <g>
       <use xlink:href="#m705897dcd9" x="526.947463" y="283.994" style="stroke: #000000; stroke-width: 0.8"/>
      </g>
     </g>
    </g>
    <g id="xtick_9">
     <g id="line2d_9">
      <g>
       <use xlink:href="#m705897dcd9" x="590.949933" y="283.994" style="stroke: #000000; stroke-width: 0.8"/>
      </g>
     </g>
    </g>
    <g id="xtick_10">
     <g id="line2d_10">
      <g>
       <use xlink:href="#m705897dcd9" x="654.952404" y="283.994" style="stroke: #000000; stroke-width: 0.8"/>
      </g>
     </g>
    </g>
    <g id="xtick_11">
     <g id="line2d_11">
      <g>
       <use xlink:href="#m705897dcd9" x="718.954874" y="283.994" style="stroke: #000000; stroke-width: 0.8"/>
      </g>
     </g>
    </g>
    <g id="xtick_12">
     <g id="line2d_12">
      <g>
       <use xlink:href="#m705897dcd9" x="782.957344" y="283.994" style="stroke: #000000; stroke-width: 0.8"/>
      </g>
     </g>
    </g>
   </g>
   <g id="matplotlib.axis_2">
    <g id="ytick_1">
     <g id="line2d_13">
      <path d="M 42.12875 283.994 
L 851.76 283.994 
" clip-path="url(#p08486ae0dd)" style="fill: none; stroke: #d9d9d9; stroke-opacity: 0.7; stroke-width: 0.6; stroke-linecap: square"/>
     </g>
     <g id="line2d_14">
      <defs>
       <path id="mc54222c0c0" d="M 0 0 
L -3.5 0 
" style="stroke: #000000; stroke-width: 0.8"/>
      </defs>
      <g>
       <use xlink:href="#mc54222c0c0" x="42.12875" y="283.994" style="stroke: #000000; stroke-width: 0.8"/>
      </g>
     </g>
     <g id="text_1">
      <text style="font-size: 10px; font-family: 'DejaVu Sans'; text-anchor: end" x="35.12875" y="287.793219" transform="rotate(-0 35.12875 287.793219)">0</text>
     </g>
    </g>
    <g id="ytick_2">
     <g id="line2d_15">
      <path d="M 42.12875 239.717978 
L 851.76 239.717978 
" clip-path="url(#p08486ae0dd)" style="fill: none; stroke: #d9d9d9; stroke-opacity: 0.7; stroke-width: 0.6; stroke-linecap: square"/>
     </g>
     <g id="line2d_16">
      <g>
       <use xlink:href="#mc54222c0c0" x="42.12875" y="239.717978" style="stroke: #000000; stroke-width: 0.8"/>
      </g>
     </g>
     <g id="text_2">
      <text style="font-size: 10px; font-family: 'DejaVu Sans'; text-anchor: end" x="35.12875" y="243.517197" transform="rotate(-0 35.12875 243.517197)">10</text>
     </g>
    </g>
    <g id="ytick_3">
     <g id="line2d_17">
      <path d="M 42.12875 195.441956 
L 851.76 195.441956 
" clip-path="url(#p08486ae0dd)" style="fill: none; stroke: #d9d9d9; stroke-opacity: 0.7; stroke-width: 0.6; stroke-linecap: square"/>
     </g>
     <g id="line2d_18">
      <g>
       <use xlink:href="#mc54222c0c0" x="42.12875" y="195.441956" style="stroke: #000000; stroke-width: 0.8"/>
      </g>
     </g>
     <g id="text_3">
      <text style="font-size: 10px; font-family: 'DejaVu Sans'; text-anchor: end" x="35.12875" y="199.241175" transform="rotate(-0 35.12875 199.241175)">20</text>
     </g>
    </g>
    <g id="ytick_4">
     <g id="line2d_19">
      <path d="M 42.12875 151.165934 
L 851.76 151.165934 
" clip-path="url(#p08486ae0dd)" style="fill: none; stroke: #d9d9d9; stroke-opacity: 0.7; stroke-width: 0.6; stroke-linecap: square"/>
     </g>
     <g id="line2d_20">
      <g>
       <use xlink:href="#mc54222c0c0" x="42.12875" y="151.165934" style="stroke: #000000; stroke-width: 0.8"/>
      </g>
     </g>
     <g id="text_4">
      <text style="font-size: 10px; font-family: 'DejaVu Sans'; text-anchor: end" x="35.12875" y="154.965153" transform="rotate(-0 35.12875 154.965153)">30</text>
     </g>
    </g>
    <g id="ytick_5">
     <g id="line2d_21">
      <path d="M 42.12875 106.889912 
L 851.76 106.889912 
" clip-path="url(#p08486ae0dd)" style="fill: none; stroke: #d9d9d9; stroke-opacity: 0.7; stroke-width: 0.6; stroke-linecap: square"/>
     </g>
     <g id="line2d_22">
      <g>
       <use xlink:href="#mc54222c0c0" x="42.12875" y="106.889912" style="stroke: #000000; stroke-width: 0.8"/>
      </g>
     </g>
     <g id="text_5">
      <text style="font-size: 10px; font-family: 'DejaVu Sans'; text-anchor: end" x="35.12875" y="110.689131" transform="rotate(-0 35.12875 110.689131)">40</text>
     </g>
    </g>
    <g id="text_6">
     <text style="font-size: 10px; font-family: 'DejaVu Sans'; text-anchor: middle" x="16.324063" y="178.927" transform="rotate(-90 16.324063 178.927)">Agent posts</text>
    </g>
   </g>
   <g id="line2d_23">
    <path d="M 78.93017 185.110884 
L 142.932641 99.510575 
L 206.935111 111.317515 
L 270.937582 146.738332 
L 334.940052 193.966089 
L 398.942522 220.531702 
L 462.944993 235.290376 
L 526.947463 247.097315 
L 590.949933 261.855989 
L 654.952404 220.531702 
L 718.954874 186.586752 
L 782.957344 195.441956 
" clip-path="url(#p08486ae0dd)" style="fill: none; stroke: #202020; stroke-width: 1.5; stroke-linecap: square"/>
   </g>
   <g id="line2d_24">
    <path d="M 142.932641 283.994 
L 142.932641 73.86 
" clip-path="url(#p08486ae0dd)" style="fill: none; stroke-dasharray: 4.07,1.76; stroke-dashoffset: 0; stroke: #8b1a1a; stroke-width: 1.1"/>
   </g>
   <g id="patch_4">
    <path d="M 42.12875 283.994 
L 42.12875 73.86 
" style="fill: none; stroke: #000000; stroke-width: 0.8; stroke-linejoin: miter; stroke-linecap: square"/>
   </g>
   <g id="patch_5">
    <path d="M 42.12875 283.994 
L 851.76 283.994 
" style="fill: none; stroke: #000000; stroke-width: 0.8; stroke-linejoin: miter; stroke-linecap: square"/>
   </g>
   <g id="text_7">
    <text style="font-size: 9px; font-family: 'DejaVu Sans'; text-anchor: start; fill: #8b1a1a" x="146.132764" y="110.579581" transform="rotate(-0 146.132764 110.579581)">W13 event</text>
   </g>
   <g id="text_8">
    <text style="font-size: 9px; font-family: 'DejaVu Sans'; text-anchor: start; fill: #555555" x="756.076307" y="129.027923" transform="rotate(-0 756.076307 129.027923)">W23 drain</text>
   </g>
   <g id="text_9">
    <text style="font-size: 12px; font-family: 'DejaVu Sans'; text-anchor: start" x="42.12875" y="67.86" transform="rotate(-0 42.12875 67.86)">Interest arm — predicted mean across 3 seeds</text>
   </g>
   <g id="legend_1">
    <g id="patch_6">
     <path d="M 396.48375 88.798594 
L 414.48375 88.798594 
L 414.48375 82.498594 
L 396.48375 82.498594 
z
" style="fill: #e69f00; fill-opacity: 0.88; stroke: #ffffff; stroke-opacity: 0.88; stroke-width: 0.5; stroke-linejoin: miter"/>
    </g>
    <g id="text_10">
     <text style="font-size: 9px; font-family: 'DejaVu Sans'; text-anchor: start" x="421.68375" y="88.798594" transform="rotate(-0 421.68375 88.798594)">Marketing</text>
    </g>
    <g id="patch_7">
     <path d="M 484.533281 88.798594 
L 502.533281 88.798594 
L 502.533281 82.498594 
L 484.533281 82.498594 
z
" style="fill: #009e73; fill-opacity: 0.88; stroke: #ffffff; stroke-opacity: 0.88; stroke-width: 0.5; stroke-linejoin: miter"/>
    </g>
    <g id="text_11">
     <text style="font-size: 9px; font-family: 'DejaVu Sans'; text-anchor: start" x="509.733281" y="88.798594" transform="rotate(-0 509.733281 88.798594)">Education</text>
    </g>
    <g id="patch_8">
     <path d="M 572.540625 88.798594 
L 590.540625 88.798594 
L 590.540625 82.498594 
L 572.540625 82.498594 
z
" style="fill: #7a7a7a; fill-opacity: 0.88; stroke: #ffffff; stroke-opacity: 0.88; stroke-width: 0.5; stroke-linejoin: miter"/>
    </g>
    <g id="text_12">
     <text style="font-size: 9px; font-family: 'DejaVu Sans'; text-anchor: start" x="597.740625" y="88.798594" transform="rotate(-0 597.740625 88.798594)">Other</text>
    </g>
    <g id="patch_9">
     <path d="M 641.295 88.798594 
L 659.295 88.798594 
L 659.295 82.498594 
L 641.295 82.498594 
z
" style="fill: #0072b2; fill-opacity: 0.88; stroke: #ffffff; stroke-opacity: 0.88; stroke-width: 0.5; stroke-linejoin: miter"/>
    </g>
    <g id="text_13">
     <text style="font-size: 9px; font-family: 'DejaVu Sans'; text-anchor: start" x="666.495" y="88.798594" transform="rotate(-0 666.495 88.798594)">Mourning</text>
    </g>
    <g id="patch_10">
     <path d="M 726.634688 88.798594 
L 744.634688 88.798594 
L 744.634688 82.498594 
L 726.634688 82.498594 
z
" style="fill: #d55e00; fill-opacity: 0.88; stroke: #ffffff; stroke-opacity: 0.88; stroke-width: 0.5; stroke-linejoin: miter"/>
    </g>
    <g id="text_14">
     <text style="font-size: 9px; font-family: 'DejaVu Sans'; text-anchor: start" x="751.834688" y="88.798594" transform="rotate(-0 751.834688 88.798594)">Meme</text>
    </g>
    <g id="line2d_25">
     <path d="M 797.442188 85.648594 
L 806.442188 85.648594 
L 815.442188 85.648594 
" style="fill: none; stroke: #202020; stroke-width: 1.5; stroke-linecap: square"/>
    </g>
    <g id="text_15">
     <text style="font-size: 9px; font-family: 'DejaVu Sans'; text-anchor: start" x="822.642188" y="88.798594" transform="rotate(-0 822.642188 88.798594)">Total</text>
    </g>
   </g>
  </g>
  <g id="axes_2">
   <g id="patch_11">
    <path d="M 42.12875 525.328 
L 851.76 525.328 
L 851.76 315.194 
L 42.12875 315.194 
z
" style="fill: #ffffff"/>
   </g>
   <g id="FillBetweenPolyCollection_6">
    <defs>
     <path id="m983e8d2b54" d="M 78.93017 -147.75616 
L 78.93017 -63.631719 
L 142.932641 -63.631719 
L 206.935111 -63.631719 
L 270.937582 -63.631719 
L 334.940052 -63.631719 
L 398.942522 -63.631719 
L 462.944993 -63.631719 
L 526.947463 -63.631719 
L 590.949933 -63.631719 
L 654.952404 -63.631719 
L 718.954874 -63.631719 
L 782.957344 -63.631719 
L 782.957344 -76.914525 
L 782.957344 -76.914525 
L 718.954874 -76.914525 
L 654.952404 -76.914525 
L 590.949933 -76.914525 
L 526.947463 -76.914525 
L 462.944993 -78.390393 
L 398.942522 -78.390393 
L 334.940052 -78.390393 
L 270.937582 -85.76973 
L 206.935111 -99.052536 
L 142.932641 -121.190547 
L 78.93017 -147.75616 
z
" style="stroke: #ffffff; stroke-opacity: 0.88; stroke-width: 0.5"/>
    </defs>
    <g clip-path="url(#p3ee0b6ff50)">
     <use xlink:href="#m983e8d2b54" x="0" y="588.959719" style="fill: #e69f00; fill-opacity: 0.88; stroke: #ffffff; stroke-opacity: 0.88; stroke-width: 0.5"/>
    </g>
   </g>
   <g id="FillBetweenPolyCollection_7">
    <defs>
     <path id="m86e771ea63" d="M 78.93017 -166.942437 
L 78.93017 -147.75616 
L 142.932641 -121.190547 
L 206.935111 -99.052536 
L 270.937582 -85.76973 
L 334.940052 -78.390393 
L 398.942522 -78.390393 
L 462.944993 -78.390393 
L 526.947463 -76.914525 
L 590.949933 -76.914525 
L 654.952404 -76.914525 
L 718.954874 -76.914525 
L 782.957344 -76.914525 
L 782.957344 -81.342128 
L 782.957344 -81.342128 
L 718.954874 -81.342128 
L 654.952404 -79.86626 
L 590.949933 -81.342128 
L 526.947463 -87.245597 
L 462.944993 -99.052536 
L 398.942522 -102.004271 
L 334.940052 -99.052536 
L 270.937582 -110.859475 
L 206.935111 -132.997486 
L 142.932641 -152.183763 
L 78.93017 -166.942437 
z
" style="stroke: #ffffff; stroke-opacity: 0.88; stroke-width: 0.5"/>
    </defs>
    <g clip-path="url(#p3ee0b6ff50)">
     <use xlink:href="#m86e771ea63" x="0" y="588.959719" style="fill: #009e73; fill-opacity: 0.88; stroke: #ffffff; stroke-opacity: 0.88; stroke-width: 0.5"/>
    </g>
   </g>
   <g id="FillBetweenPolyCollection_8">
    <defs>
     <path id="ma1f971e826" d="M 78.93017 -166.942437 
L 78.93017 -166.942437 
L 142.932641 -152.183763 
L 206.935111 -132.997486 
L 270.937582 -110.859475 
L 334.940052 -99.052536 
L 398.942522 -102.004271 
L 462.944993 -99.052536 
L 526.947463 -87.245597 
L 590.949933 -81.342128 
L 654.952404 -79.86626 
L 718.954874 -81.342128 
L 782.957344 -81.342128 
L 782.957344 -81.342128 
L 782.957344 -81.342128 
L 718.954874 -82.817995 
L 654.952404 -81.342128 
L 590.949933 -88.721465 
L 526.947463 -100.528404 
L 462.944993 -106.431873 
L 398.942522 -115.287078 
L 334.940052 -110.859475 
L 270.937582 -122.666415 
L 206.935111 -141.852691 
L 142.932641 -152.183763 
L 78.93017 -166.942437 
z
" style="stroke: #ffffff; stroke-opacity: 0.88; stroke-width: 0.5"/>
    </defs>
    <g clip-path="url(#p3ee0b6ff50)">
     <use xlink:href="#ma1f971e826" x="0" y="588.959719" style="fill: #7a7a7a; fill-opacity: 0.88; stroke: #ffffff; stroke-opacity: 0.88; stroke-width: 0.5"/>
    </g>
   </g>
   <g id="FillBetweenPolyCollection_9">
    <defs>
     <path id="m177366d71a" d="M 78.93017 -166.942437 
L 78.93017 -166.942437 
L 142.932641 -152.183763 
L 206.935111 -141.852691 
L 270.937582 -122.666415 
L 334.940052 -110.859475 
L 398.942522 -115.287078 
L 462.944993 -106.431873 
L 526.947463 -100.528404 
L 590.949933 -88.721465 
L 654.952404 -81.342128 
L 718.954874 -82.817995 
L 782.957344 -81.342128 
L 782.957344 -81.342128 
L 782.957344 -81.342128 
L 718.954874 -82.817995 
L 654.952404 -82.817995 
L 590.949933 -88.721465 
L 526.947463 -112.335343 
L 462.944993 -118.238812 
L 398.942522 -144.804426 
L 334.940052 -137.425089 
L 270.937582 -174.321774 
L 206.935111 -200.887387 
L 142.932641 -249.591011 
L 78.93017 -166.942437 
z
" style="stroke: #ffffff; stroke-opacity: 0.88; stroke-width: 0.5"/>
    </defs>
    <g clip-path="url(#p3ee0b6ff50)">
     <use xlink:href="#m177366d71a" x="0" y="588.959719" style="fill: #0072b2; fill-opacity: 0.88; stroke: #ffffff; stroke-opacity: 0.88; stroke-width: 0.5"/>
    </g>
   </g>
   <g id="FillBetweenPolyCollection_10">
    <defs>
     <path id="m871880c551" d="M 78.93017 -166.942437 
L 78.93017 -166.942437 
L 142.932641 -249.591011 
L 206.935111 -200.887387 
L 270.937582 -174.321774 
L 334.940052 -137.425089 
L 398.942522 -144.804426 
L 462.944993 -118.238812 
L 526.947463 -112.335343 
L 590.949933 -88.721465 
L 654.952404 -82.817995 
L 718.954874 -82.817995 
L 782.957344 -81.342128 
L 782.957344 -94.624934 
L 782.957344 -94.624934 
L 718.954874 -90.197332 
L 654.952404 -84.293862 
L 590.949933 -88.721465 
L 526.947463 -113.81121 
L 462.944993 -118.238812 
L 398.942522 -144.804426 
L 334.940052 -137.425089 
L 270.937582 -174.321774 
L 206.935111 -200.887387 
L 142.932641 -249.591011 
L 78.93017 -166.942437 
z
" style="stroke: #ffffff; stroke-opacity: 0.88; stroke-width: 0.5"/>
    </defs>
    <g clip-path="url(#p3ee0b6ff50)">
     <use xlink:href="#m871880c551" x="0" y="588.959719" style="fill: #d55e00; fill-opacity: 0.88; stroke: #ffffff; stroke-opacity: 0.88; stroke-width: 0.5"/>
    </g>
   </g>
   <g id="patch_12">
    <path d="M 750.956109 525.328 
L 814.95858 525.328 
L 814.95858 315.194 
L 750.956109 315.194 
z
" clip-path="url(#p3ee0b6ff50)" style="fill: #bdbdbd; opacity: 0.18; stroke: #bdbdbd; stroke-linejoin: miter"/>
   </g>
   <g id="matplotlib.axis_3">
    <g id="xtick_13">
     <g id="line2d_26">
      <g>
       <use xlink:href="#m705897dcd9" x="78.93017" y="525.328" style="stroke: #000000; stroke-width: 0.8"/>
      </g>
     </g>
     <g id="text_16">
      <text style="font-size: 10px; font-family: 'DejaVu Sans'; text-anchor: middle" x="78.93017" y="539.926437" transform="rotate(-0 78.93017 539.926437)">W12</text>
     </g>
    </g>
    <g id="xtick_14">
     <g id="line2d_27">
      <g>
       <use xlink:href="#m705897dcd9" x="142.932641" y="525.328" style="stroke: #000000; stroke-width: 0.8"/>
      </g>
     </g>
     <g id="text_17">
      <text style="font-size: 10px; font-family: 'DejaVu Sans'; text-anchor: middle" x="142.932641" y="539.926437" transform="rotate(-0 142.932641 539.926437)">W13</text>
     </g>
    </g>
    <g id="xtick_15">
     <g id="line2d_28">
      <g>
       <use xlink:href="#m705897dcd9" x="206.935111" y="525.328" style="stroke: #000000; stroke-width: 0.8"/>
      </g>
     </g>
     <g id="text_18">
      <text style="font-size: 10px; font-family: 'DejaVu Sans'; text-anchor: middle" x="206.935111" y="539.926437" transform="rotate(-0 206.935111 539.926437)">W14</text>
     </g>
    </g>
    <g id="xtick_16">
     <g id="line2d_29">
      <g>
       <use xlink:href="#m705897dcd9" x="270.937582" y="525.328" style="stroke: #000000; stroke-width: 0.8"/>
      </g>
     </g>
     <g id="text_19">
      <text style="font-size: 10px; font-family: 'DejaVu Sans'; text-anchor: middle" x="270.937582" y="539.926437" transform="rotate(-0 270.937582 539.926437)">W15</text>
     </g>
    </g>
    <g id="xtick_17">
     <g id="line2d_30">
      <g>
       <use xlink:href="#m705897dcd9" x="334.940052" y="525.328" style="stroke: #000000; stroke-width: 0.8"/>
      </g>
     </g>
     <g id="text_20">
      <text style="font-size: 10px; font-family: 'DejaVu Sans'; text-anchor: middle" x="334.940052" y="539.926437" transform="rotate(-0 334.940052 539.926437)">W16</text>
     </g>
    </g>
    <g id="xtick_18">
     <g id="line2d_31">
      <g>
       <use xlink:href="#m705897dcd9" x="398.942522" y="525.328" style="stroke: #000000; stroke-width: 0.8"/>
      </g>
     </g>
     <g id="text_21">
      <text style="font-size: 10px; font-family: 'DejaVu Sans'; text-anchor: middle" x="398.942522" y="539.926437" transform="rotate(-0 398.942522 539.926437)">W17</text>
     </g>
    </g>
    <g id="xtick_19">
     <g id="line2d_32">
      <g>
       <use xlink:href="#m705897dcd9" x="462.944993" y="525.328" style="stroke: #000000; stroke-width: 0.8"/>
      </g>
     </g>
     <g id="text_22">
      <text style="font-size: 10px; font-family: 'DejaVu Sans'; text-anchor: middle" x="462.944993" y="539.926437" transform="rotate(-0 462.944993 539.926437)">W18</text>
     </g>
    </g>
    <g id="xtick_20">
     <g id="line2d_33">
      <g>
       <use xlink:href="#m705897dcd9" x="526.947463" y="525.328" style="stroke: #000000; stroke-width: 0.8"/>
      </g>
     </g>
     <g id="text_23">
      <text style="font-size: 10px; font-family: 'DejaVu Sans'; text-anchor: middle" x="526.947463" y="539.926437" transform="rotate(-0 526.947463 539.926437)">W19</text>
     </g>
    </g>
    <g id="xtick_21">
     <g id="line2d_34">
      <g>
       <use xlink:href="#m705897dcd9" x="590.949933" y="525.328" style="stroke: #000000; stroke-width: 0.8"/>
      </g>
     </g>
     <g id="text_24">
      <text style="font-size: 10px; font-family: 'DejaVu Sans'; text-anchor: middle" x="590.949933" y="539.926437" transform="rotate(-0 590.949933 539.926437)">W20</text>
     </g>
    </g>
    <g id="xtick_22">
     <g id="line2d_35">
      <g>
       <use xlink:href="#m705897dcd9" x="654.952404" y="525.328" style="stroke: #000000; stroke-width: 0.8"/>
      </g>
     </g>
     <g id="text_25">
      <text style="font-size: 10px; font-family: 'DejaVu Sans'; text-anchor: middle" x="654.952404" y="539.926437" transform="rotate(-0 654.952404 539.926437)">W21</text>
     </g>
    </g>
    <g id="xtick_23">
     <g id="line2d_36">
      <g>
       <use xlink:href="#m705897dcd9" x="718.954874" y="525.328" style="stroke: #000000; stroke-width: 0.8"/>
      </g>
     </g>
     <g id="text_26">
      <text style="font-size: 10px; font-family: 'DejaVu Sans'; text-anchor: middle" x="718.954874" y="539.926437" transform="rotate(-0 718.954874 539.926437)">W22</text>
     </g>
    </g>
    <g id="xtick_24">
     <g id="line2d_37">
      <g>
       <use xlink:href="#m705897dcd9" x="782.957344" y="525.328" style="stroke: #000000; stroke-width: 0.8"/>
      </g>
     </g>
     <g id="text_27">
      <text style="font-size: 10px; font-family: 'DejaVu Sans'; text-anchor: middle" x="782.957344" y="539.926437" transform="rotate(-0 782.957344 539.926437)">W23</text>
     </g>
    </g>
    <g id="text_28">
     <text style="font-size: 10px; font-family: 'DejaVu Sans'; text-anchor: middle" x="446.944375" y="553.604562" transform="rotate(-0 446.944375 553.604562)">Simulation week</text>
    </g>
   </g>
   <g id="matplotlib.axis_4">
    <g id="ytick_6">
     <g id="line2d_38">
      <path d="M 42.12875 525.328 
L 851.76 525.328 
" clip-path="url(#p3ee0b6ff50)" style="fill: none; stroke: #d9d9d9; stroke-opacity: 0.7; stroke-width: 0.6; stroke-linecap: square"/>
     </g>
     <g id="line2d_39">
      <g>
       <use xlink:href="#mc54222c0c0" x="42.12875" y="525.328" style="stroke: #000000; stroke-width: 0.8"/>
      </g>
     </g>
     <g id="text_29">
      <text style="font-size: 10px; font-family: 'DejaVu Sans'; text-anchor: end" x="35.12875" y="529.127219" transform="rotate(-0 35.12875 529.127219)">0</text>
     </g>
    </g>
    <g id="ytick_7">
     <g id="line2d_40">
      <path d="M 42.12875 481.051978 
L 851.76 481.051978 
" clip-path="url(#p3ee0b6ff50)" style="fill: none; stroke: #d9d9d9; stroke-opacity: 0.7; stroke-width: 0.6; stroke-linecap: square"/>
     </g>
     <g id="line2d_41">
      <g>
       <use xlink:href="#mc54222c0c0" x="42.12875" y="481.051978" style="stroke: #000000; stroke-width: 0.8"/>
      </g>
     </g>
     <g id="text_30">
      <text style="font-size: 10px; font-family: 'DejaVu Sans'; text-anchor: end" x="35.12875" y="484.851197" transform="rotate(-0 35.12875 484.851197)">10</text>
     </g>
    </g>
    <g id="ytick_8">
     <g id="line2d_42">
      <path d="M 42.12875 436.775956 
L 851.76 436.775956 
" clip-path="url(#p3ee0b6ff50)" style="fill: none; stroke: #d9d9d9; stroke-opacity: 0.7; stroke-width: 0.6; stroke-linecap: square"/>
     </g>
     <g id="line2d_43">
      <g>
       <use xlink:href="#mc54222c0c0" x="42.12875" y="436.775956" style="stroke: #000000; stroke-width: 0.8"/>
      </g>
     </g>
     <g id="text_31">
      <text style="font-size: 10px; font-family: 'DejaVu Sans'; text-anchor: end" x="35.12875" y="440.575175" transform="rotate(-0 35.12875 440.575175)">20</text>
     </g>
    </g>
    <g id="ytick_9">
     <g id="line2d_44">
      <path d="M 42.12875 392.499934 
L 851.76 392.499934 
" clip-path="url(#p3ee0b6ff50)" style="fill: none; stroke: #d9d9d9; stroke-opacity: 0.7; stroke-width: 0.6; stroke-linecap: square"/>
     </g>
     <g id="line2d_45">
      <g>
       <use xlink:href="#mc54222c0c0" x="42.12875" y="392.499934" style="stroke: #000000; stroke-width: 0.8"/>
      </g>
     </g>
     <g id="text_32">
      <text style="font-size: 10px; font-family: 'DejaVu Sans'; text-anchor: end" x="35.12875" y="396.299153" transform="rotate(-0 35.12875 396.299153)">30</text>
     </g>
    </g>
    <g id="ytick_10">
     <g id="line2d_46">
      <path d="M 42.12875 348.223912 
L 851.76 348.223912 
" clip-path="url(#p3ee0b6ff50)" style="fill: none; stroke: #d9d9d9; stroke-opacity: 0.7; stroke-width: 0.6; stroke-linecap: square"/>
     </g>
     <g id="line2d_47">
      <g>
       <use xlink:href="#mc54222c0c0" x="42.12875" y="348.223912" style="stroke: #000000; stroke-width: 0.8"/>
      </g>
     </g>
     <g id="text_33">
      <text style="font-size: 10px; font-family: 'DejaVu Sans'; text-anchor: end" x="35.12875" y="352.023131" transform="rotate(-0 35.12875 352.023131)">40</text>
     </g>
    </g>
    <g id="text_34">
     <text style="font-size: 10px; font-family: 'DejaVu Sans'; text-anchor: middle" x="16.324063" y="420.261" transform="rotate(-90 16.324063 420.261)">Agent posts</text>
    </g>
   </g>
   <g id="line2d_48">
    <path d="M 78.93017 422.017282 
L 142.932641 339.368708 
L 206.935111 388.072332 
L 270.937582 414.637945 
L 334.940052 451.53463 
L 398.942522 444.155293 
L 462.944993 470.720906 
L 526.947463 475.148508 
L 590.949933 500.238254 
L 654.952404 504.665856 
L 718.954874 498.762387 
L 782.957344 494.334785 
" clip-path="url(#p3ee0b6ff50)" style="fill: none; stroke: #202020; stroke-width: 1.5; stroke-linecap: square"/>
   </g>
   <g id="line2d_49">
    <path d="M 142.932641 525.328 
L 142.932641 315.194 
" clip-path="url(#p3ee0b6ff50)" style="fill: none; stroke-dasharray: 4.07,1.76; stroke-dashoffset: 0; stroke: #8b1a1a; stroke-width: 1.1"/>
   </g>
   <g id="patch_13">
    <path d="M 42.12875 525.328 
L 42.12875 315.194 
" style="fill: none; stroke: #000000; stroke-width: 0.8; stroke-linejoin: miter; stroke-linecap: square"/>
   </g>
   <g id="patch_14">
    <path d="M 42.12875 525.328 
L 851.76 525.328 
" style="fill: none; stroke: #000000; stroke-width: 0.8; stroke-linejoin: miter; stroke-linecap: square"/>
   </g>
   <g id="text_35">
    <text style="font-size: 9px; font-family: 'DejaVu Sans'; text-anchor: start; fill: #8b1a1a" x="146.132764" y="350.526265" transform="rotate(-0 146.132764 350.526265)">W13 event</text>
   </g>
   <g id="text_36">
    <text style="font-size: 9px; font-family: 'DejaVu Sans'; text-anchor: start; fill: #555555" x="756.076307" y="369.122195" transform="rotate(-0 756.076307 369.122195)">W23 drain</text>
   </g>
   <g id="text_37">
    <text style="font-size: 12px; font-family: 'DejaVu Sans'; text-anchor: start" x="42.12875" y="309.194" transform="rotate(-0 42.12875 309.194)">Random arm — predicted mean across 3 seeds</text>
   </g>
  </g>
  <g id="text_38">
   <text style="font-weight: 700; font-size: 15px; font-family: 'DejaVu Sans'; text-anchor: middle" x="430.56" y="18.597656" transform="rotate(-0 430.56 18.597656)">Predicted Agent Posting Volume — weekly_lag1_event_v2</text>
  </g>
  <g id="text_39">
   <text style="font-size: 9px; font-family: 'DejaVu Sans'; text-anchor: start; fill: #555555" x="7.2" y="579.888" transform="rotate(-0 7.2 579.888)">Mechanism-only proxy (no LLM calls). W23 is a drain/readout week and is not benchmark-fitted.</text>
  </g>
 </g>
 <defs>
  <clipPath id="p08486ae0dd">
   <rect x="42.12875" y="73.86" width="809.63125" height="210.134"/>
  </clipPath>
  <clipPath id="p3ee0b6ff50">
   <rect x="42.12875" y="315.194" width="809.63125" height="210.134"/>
  </clipPath>
 </defs>
</svg>
